<svg width="30" height="30" viewBox="0 0 30 30" fill="none" xmlns="http://www.w3.org/2000/svg">
<path fill-rule="evenodd" clip-rule="evenodd" d="M14.4208 7.00517C13.2112 7.12289 12.299 7.38393 11.3097 7.89539C9.79942 8.67624 8.57988 9.91878 7.82584 11.445C7.53615 12.0314 7.39962 12.3908 7.24821 12.9659C7.05733 13.6907 7.00175 14.1313 7.00003 14.9332C6.99919 15.3324 7.01566 15.7657 7.03813 15.9343C7.20893 17.2161 7.61149 18.3208 8.28477 19.355L8.50917 19.6997L8.01068 21.1692C7.73649 21.9774 7.51651 22.643 7.5218 22.6483C7.52713 22.6536 8.21287 22.4403 9.0457 22.1743C9.87856 21.9082 10.5711 21.6905 10.5847 21.6905C10.5984 21.6905 10.7269 21.7634 10.8704 21.8525C11.014 21.9416 11.3146 22.1021 11.5386 22.2091C13.5641 23.1771 15.8795 23.26 17.9535 22.4387C20.3034 21.5081 22.1083 19.4723 22.7526 17.0256C22.9499 16.2763 23 15.8655 23 14.9958C23 14.1261 22.9499 13.7153 22.7526 12.9659C21.9968 10.0957 19.6931 7.86464 16.7861 7.18765C16.2977 7.0739 15.7895 7.01628 15.1727 7.00473C14.8281 6.99826 14.4898 6.99845 14.4208 7.00517ZM12.5102 10.7174C12.562 10.7443 12.6347 10.8205 12.6717 10.8867C12.7651 11.0539 13.5267 12.8856 13.5489 12.9964C13.5773 13.1382 13.4385 13.3792 13.1271 13.7288C12.8021 14.0936 12.7323 14.2107 12.7612 14.3423C12.8137 14.581 13.5383 15.5405 13.9847 15.9625C14.6774 16.6172 15.7244 17.239 16.1909 17.2726C16.4308 17.2899 16.5182 17.2221 16.8851 16.7344C17.0516 16.5132 17.2291 16.2908 17.2797 16.2404C17.4005 16.1197 17.5799 16.0941 17.781 16.1689C18.0391 16.2648 19.6166 17.0319 19.7273 17.1154L19.8334 17.1953L19.8159 17.5267C19.7709 18.3777 19.472 18.8196 18.6815 19.2038C17.9298 19.5691 17.3415 19.5591 16.1897 19.1615C14.6444 18.6282 13.8242 18.1187 12.7128 17.0019C12.1566 16.4431 11.7614 15.9706 11.3094 15.3243C10.5645 14.2591 10.2789 13.4367 10.3639 12.6019C10.4321 11.9326 10.6663 11.4386 11.1393 10.9662C11.3681 10.7377 11.6676 10.6436 12.1182 10.6586C12.3094 10.665 12.4496 10.686 12.5102 10.7174Z" fill="#F8F8F8"/>
</svg>
